solid OpenSCAD_Model
  facet normal 1 -0 0
    outer loop
      vertex 141 0 50
      vertex 141 232 0
      vertex 141 232 50
    endloop
  endfacet
  facet normal 1 0 0
    outer loop
      vertex 141 232 0
      vertex 141 0 50
      vertex 141 0 0
    endloop
  endfacet
  facet normal 0 0 -1
    outer loop
      vertex 3 3 44
      vertex 138 229 44
      vertex 138 3 44
    endloop
  endfacet
  facet normal -0 0 -1
    outer loop
      vertex 138 229 44
      vertex 3 3 44
      vertex 3 229 44
    endloop
  endfacet
  facet normal 0 0 -1
    outer loop
      vertex 0 0 0
      vertex 141 232 0
      vertex 141 0 0
    endloop
  endfacet
  facet normal -0 0 -1
    outer loop
      vertex 141 232 0
      vertex 0 0 0
      vertex 0 232 0
    endloop
  endfacet
  facet normal -1 0 0
    outer loop
      vertex 0 0 0
      vertex 0 232 50
      vertex 0 232 0
    endloop
  endfacet
  facet normal -1 -0 0
    outer loop
      vertex 0 232 50
      vertex 0 0 0
      vertex 0 0 50
    endloop
  endfacet
  facet normal 0 1 -0
    outer loop
      vertex 141 232 0
      vertex 0 232 50
      vertex 141 232 50
    endloop
  endfacet
  facet normal 0 1 0
    outer loop
      vertex 0 232 50
      vertex 141 232 0
      vertex 0 232 0
    endloop
  endfacet
  facet normal 0 -1 0
    outer loop
      vertex 0 0 0
      vertex 141 0 50
      vertex 0 0 50
    endloop
  endfacet
  facet normal 0 -1 -0
    outer loop
      vertex 141 0 50
      vertex 0 0 0
      vertex 141 0 0
    endloop
  endfacet
  facet normal -1 0 0
    outer loop
      vertex 138 3 3
      vertex 138 229 44
      vertex 138 229 3
    endloop
  endfacet
  facet normal -1 -0 0
    outer loop
      vertex 138 229 44
      vertex 138 3 3
      vertex 138 3 44
    endloop
  endfacet
  facet normal -0 0 1
    outer loop
      vertex 3 229 3
      vertex 138 3 3
      vertex 138 229 3
    endloop
  endfacet
  facet normal 0 0 1
    outer loop
      vertex 138 3 3
      vertex 3 229 3
      vertex 3 3 3
    endloop
  endfacet
  facet normal 1 -0 0
    outer loop
      vertex 3 3 44
      vertex 3 229 3
      vertex 3 229 44
    endloop
  endfacet
  facet normal 1 0 0
    outer loop
      vertex 3 229 3
      vertex 3 3 44
      vertex 3 3 3
    endloop
  endfacet
  facet normal 0 -1 0
    outer loop
      vertex 3 229 3
      vertex 138 229 44
      vertex 3 229 44
    endloop
  endfacet
  facet normal 0 -1 -0
    outer loop
      vertex 138 229 44
      vertex 3 229 3
      vertex 138 229 3
    endloop
  endfacet
  facet normal 0 1 -0
    outer loop
      vertex 138 3 3
      vertex 3 3 44
      vertex 138 3 44
    endloop
  endfacet
  facet normal 0 1 0
    outer loop
      vertex 3 3 44
      vertex 138 3 3
      vertex 3 3 3
    endloop
  endfacet
  facet normal -0 0 1
    outer loop
      vertex 0 232 50
      vertex 141 0 50
      vertex 141 232 50
    endloop
  endfacet
  facet normal 0 0 1
    outer loop
      vertex 141 0 50
      vertex 0 232 50
      vertex 0 0 50
    endloop
  endfacet
endsolid OpenSCAD_Model
