solid OpenSCAD_Model
  facet normal 1 -0 0
    outer loop
      vertex 167.3 0 2
      vertex 167.3 80 0
      vertex 167.3 80 2
    endloop
  endfacet
  facet normal 1 0 0
    outer loop
      vertex 167.3 80 0
      vertex 167.3 0 2
      vertex 167.3 0 0
    endloop
  endfacet
  facet normal 0 0 1
    outer loop
      vertex 167.3 80 2
      vertex 160.5 68.85 2
      vertex 167.3 0 2
    endloop
  endfacet
  facet normal 0 0 1
    outer loop
      vertex 167.3 80 2
      vertex 7 68.85 2
      vertex 160.5 68.85 2
    endloop
  endfacet
  facet normal 0 0 1
    outer loop
      vertex 7 68.85 2
      vertex 0 80 2
      vertex 7 11.35 2
    endloop
  endfacet
  facet normal -0 0 1
    outer loop
      vertex 0 80 2
      vertex 7 68.85 2
      vertex 167.3 80 2
    endloop
  endfacet
  facet normal -0 0 1
    outer loop
      vertex 160.5 11.35 2
      vertex 167.3 0 2
      vertex 160.5 68.85 2
    endloop
  endfacet
  facet normal -0 0 1
    outer loop
      vertex 7 11.35 2
      vertex 167.3 0 2
      vertex 160.5 11.35 2
    endloop
  endfacet
  facet normal 0 0 1
    outer loop
      vertex 7 11.35 2
      vertex 0 0 2
      vertex 167.3 0 2
    endloop
  endfacet
  facet normal 0 0 1
    outer loop
      vertex 0 0 2
      vertex 7 11.35 2
      vertex 0 80 2
    endloop
  endfacet
  facet normal 0 0 -1
    outer loop
      vertex 167.3 0 0
      vertex 160.5 11.35 0
      vertex 167.3 80 0
    endloop
  endfacet
  facet normal 0 0 -1
    outer loop
      vertex 167.3 0 0
      vertex 7 11.35 0
      vertex 160.5 11.35 0
    endloop
  endfacet
  facet normal -0 0 -1
    outer loop
      vertex 7 11.35 0
      vertex 0 0 0
      vertex 7 68.85 0
    endloop
  endfacet
  facet normal 0 0 -1
    outer loop
      vertex 0 0 0
      vertex 7 11.35 0
      vertex 167.3 0 0
    endloop
  endfacet
  facet normal 0 0 -1
    outer loop
      vertex 160.5 68.85 0
      vertex 167.3 80 0
      vertex 160.5 11.35 0
    endloop
  endfacet
  facet normal 0 0 -1
    outer loop
      vertex 7 68.85 0
      vertex 167.3 80 0
      vertex 160.5 68.85 0
    endloop
  endfacet
  facet normal 0 0 -1
    outer loop
      vertex 7 68.85 0
      vertex 0 80 0
      vertex 167.3 80 0
    endloop
  endfacet
  facet normal 0 0 -1
    outer loop
      vertex 0 80 0
      vertex 7 68.85 0
      vertex 0 0 0
    endloop
  endfacet
  facet normal -1 0 0
    outer loop
      vertex 0 0 0
      vertex 0 80 2
      vertex 0 80 0
    endloop
  endfacet
  facet normal -1 -0 0
    outer loop
      vertex 0 80 2
      vertex 0 0 0
      vertex 0 0 2
    endloop
  endfacet
  facet normal 0 1 -0
    outer loop
      vertex 167.3 80 0
      vertex 0 80 2
      vertex 167.3 80 2
    endloop
  endfacet
  facet normal 0 1 0
    outer loop
      vertex 0 80 2
      vertex 167.3 80 0
      vertex 0 80 0
    endloop
  endfacet
  facet normal 0 -1 0
    outer loop
      vertex 0 0 0
      vertex 167.3 0 2
      vertex 0 0 2
    endloop
  endfacet
  facet normal 0 -1 -0
    outer loop
      vertex 167.3 0 2
      vertex 0 0 0
      vertex 167.3 0 0
    endloop
  endfacet
  facet normal -1 0 0
    outer loop
      vertex 160.5 11.35 0
      vertex 160.5 68.85 2
      vertex 160.5 68.85 0
    endloop
  endfacet
  facet normal -1 -0 0
    outer loop
      vertex 160.5 68.85 2
      vertex 160.5 11.35 0
      vertex 160.5 11.35 2
    endloop
  endfacet
  facet normal 1 -0 0
    outer loop
      vertex 7 11.35 2
      vertex 7 68.85 0
      vertex 7 68.85 2
    endloop
  endfacet
  facet normal 1 0 0
    outer loop
      vertex 7 68.85 0
      vertex 7 11.35 2
      vertex 7 11.35 0
    endloop
  endfacet
  facet normal 0 -1 0
    outer loop
      vertex 7 68.85 0
      vertex 160.5 68.85 2
      vertex 7 68.85 2
    endloop
  endfacet
  facet normal 0 -1 -0
    outer loop
      vertex 160.5 68.85 2
      vertex 7 68.85 0
      vertex 160.5 68.85 0
    endloop
  endfacet
  facet normal 0 1 -0
    outer loop
      vertex 160.5 11.35 0
      vertex 7 11.35 2
      vertex 160.5 11.35 2
    endloop
  endfacet
  facet normal 0 1 0
    outer loop
      vertex 7 11.35 2
      vertex 160.5 11.35 0
      vertex 7 11.35 0
    endloop
  endfacet
  facet normal -0 0 -1
    outer loop
      vertex 163.19 71.9673 2.5
      vertex 162.643 71.2729 2.5
      vertex 162.693 71.9673 2.5
    endloop
  endfacet
  facet normal -0 0 -1
    outer loop
      vertex 163.105 71.123 2.5
      vertex 162.493 70.7846 2.5
      vertex 162.643 71.2729 2.5
    endloop
  endfacet
  facet normal 0 0 -1
    outer loop
      vertex 162.234 70.4958 2.5
      vertex 162.852 70.5053 2.5
      vertex 162.434 70.1269 2.5
    endloop
  endfacet
  facet normal -0 0 -1
    outer loop
      vertex 162.852 70.5053 2.5
      vertex 162.234 70.4958 2.5
      vertex 162.493 70.7846 2.5
    endloop
  endfacet
  facet normal 0 0 -1
    outer loop
      vertex 161.855 70.0007 2.5
      vertex 162.234 70.4958 2.5
      vertex 162.434 70.1269 2.5
    endloop
  endfacet
  facet normal 0 0 -1
    outer loop
      vertex 162.234 70.4958 2.5
      vertex 161.855 70.0007 2.5
      vertex 161.861 70.3995 2.5
    endloop
  endfacet
  facet normal 0 0 -1
    outer loop
      vertex 161.855 70.0007 2.5
      vertex 161.485 70.4937 2.5
      vertex 161.861 70.3995 2.5
    endloop
  endfacet
  facet normal 0 0 -1
    outer loop
      vertex 161.278 70.1262 2.5
      vertex 161.485 70.4937 2.5
      vertex 161.855 70.0007 2.5
    endloop
  endfacet
  facet normal 0 0 -1
    outer loop
      vertex 160.865 70.5025 2.5
      vertex 161.485 70.4937 2.5
      vertex 161.278 70.1262 2.5
    endloop
  endfacet
  facet normal 0 0 -1
    outer loop
      vertex 161.485 70.4937 2.5
      vertex 160.865 70.5025 2.5
      vertex 161.227 70.7765 2.5
    endloop
  endfacet
  facet normal 0 0 -1
    outer loop
      vertex 161.227 70.7765 2.5
      vertex 160.617 71.1196 2.5
      vertex 161.078 71.2627 2.5
    endloop
  endfacet
  facet normal 0 0 -1
    outer loop
      vertex 160.617 71.1196 2.5
      vertex 161.227 70.7765 2.5
      vertex 160.865 70.5025 2.5
    endloop
  endfacet
  facet normal 0 0 -1
    outer loop
      vertex 162.643 71.2729 2.5
      vertex 163.19 71.9673 2.5
      vertex 163.105 71.123 2.5
    endloop
  endfacet
  facet normal 0 0 -1
    outer loop
      vertex 162.646 72.6807 2.5
      vertex 163.19 71.9673 2.5
      vertex 162.693 71.9673 2.5
    endloop
  endfacet
  facet normal 0 0 -1
    outer loop
      vertex 162.493 70.7846 2.5
      vertex 163.105 71.123 2.5
      vertex 162.852 70.5053 2.5
    endloop
  endfacet
  facet normal 0 0 -1
    outer loop
      vertex 163.19 71.9673 2.5
      vertex 162.646 72.6807 2.5
      vertex 163.109 72.8217 2.5
    endloop
  endfacet
  facet normal 0 0 -1
    outer loop
      vertex 162.502 73.1662 2.5
      vertex 163.109 72.8217 2.5
      vertex 162.646 72.6807 2.5
    endloop
  endfacet
  facet normal 0 0 -1
    outer loop
      vertex 163.109 72.8217 2.5
      vertex 162.502 73.1662 2.5
      vertex 162.868 73.4375 2.5
    endloop
  endfacet
  facet normal 0 0 -1
    outer loop
      vertex 162.249 73.4449 2.5
      vertex 162.868 73.4375 2.5
      vertex 162.502 73.1662 2.5
    endloop
  endfacet
  facet normal 0 0 -1
    outer loop
      vertex 162.868 73.4375 2.5
      vertex 162.249 73.4449 2.5
      vertex 162.458 73.8098 2.5
    endloop
  endfacet
  facet normal 0 0 -1
    outer loop
      vertex 161.872 73.9339 2.5
      vertex 162.249 73.4449 2.5
      vertex 161.872 73.5378 2.5
    endloop
  endfacet
  facet normal 0 0 -1
    outer loop
      vertex 162.249 73.4449 2.5
      vertex 161.872 73.9339 2.5
      vertex 162.458 73.8098 2.5
    endloop
  endfacet
  facet normal 0 0 -1
    outer loop
      vertex 161.485 73.4463 2.5
      vertex 161.872 73.9339 2.5
      vertex 161.872 73.5378 2.5
    endloop
  endfacet
  facet normal 0 0 -1
    outer loop
      vertex 161.485 73.4463 2.5
      vertex 161.27 73.8111 2.5
      vertex 161.872 73.9339 2.5
    endloop
  endfacet
  facet normal 0 0 -1
    outer loop
      vertex 160.856 73.4429 2.5
      vertex 161.485 73.4463 2.5
      vertex 161.225 73.1716 2.5
    endloop
  endfacet
  facet normal 0 0 -1
    outer loop
      vertex 160.615 72.8285 2.5
      vertex 161.225 73.1716 2.5
      vertex 161.077 72.6875 2.5
    endloop
  endfacet
  facet normal 0 0 -1
    outer loop
      vertex 160.534 71.9673 2.5
      vertex 161.078 71.2627 2.5
      vertex 160.617 71.1196 2.5
    endloop
  endfacet
  facet normal -0 0 -1
    outer loop
      vertex 161.485 73.4463 2.5
      vertex 160.856 73.4429 2.5
      vertex 161.27 73.8111 2.5
    endloop
  endfacet
  facet normal 0 0 -1
    outer loop
      vertex 161.078 71.2627 2.5
      vertex 160.534 71.9673 2.5
      vertex 161.028 71.9673 2.5
    endloop
  endfacet
  facet normal 0 0 -1
    outer loop
      vertex 161.028 71.9673 2.5
      vertex 160.534 71.9673 2.5
      vertex 161.077 72.6875 2.5
    endloop
  endfacet
  facet normal 0 -0 -1
    outer loop
      vertex 160.615 72.8285 2.5
      vertex 161.077 72.6875 2.5
      vertex 160.534 71.9673 2.5
    endloop
  endfacet
  facet normal -0 0 -1
    outer loop
      vertex 161.225 73.1716 2.5
      vertex 160.615 72.8285 2.5
      vertex 160.856 73.4429 2.5
    endloop
  endfacet
  facet normal 0 0 -1
    outer loop
      vertex 160.118 70.055 2.5
      vertex 159.188 70.47 2.5
      vertex 160.118 70.47 2.5
    endloop
  endfacet
  facet normal 0 0 -1
    outer loop
      vertex 158.697 73.4104 2.5
      vertex 159.188 73.8769 2.5
      vertex 159.188 70.47 2.5
    endloop
  endfacet
  facet normal 0 0 -1
    outer loop
      vertex 158.697 73.4104 2.5
      vertex 159.188 70.47 2.5
      vertex 158.697 70.47 2.5
    endloop
  endfacet
  facet normal 0 0 -1
    outer loop
      vertex 160.118 70.055 2.5
      vertex 158.697 70.47 2.5
      vertex 159.188 70.47 2.5
    endloop
  endfacet
  facet normal 0 0 -1
    outer loop
      vertex 157.723 70.055 2.5
      vertex 158.697 70.47 2.5
      vertex 160.118 70.055 2.5
    endloop
  endfacet
  facet normal -0 0 -1
    outer loop
      vertex 158.697 70.47 2.5
      vertex 157.723 70.055 2.5
      vertex 157.723 70.47 2.5
    endloop
  endfacet
  facet normal -0 0 -1
    outer loop
      vertex 159.188 73.8769 2.5
      vertex 158.697 73.4104 2.5
      vertex 158.738 73.8769 2.5
    endloop
  endfacet
  facet normal 0 0 -1
    outer loop
      vertex 157.834 73.2558 2.5
      vertex 158.697 73.4104 2.5
      vertex 157.834 72.7946 2.5
    endloop
  endfacet
  facet normal -0 0 -1
    outer loop
      vertex 158.697 73.4104 2.5
      vertex 157.834 73.2558 2.5
      vertex 158.738 73.8769 2.5
    endloop
  endfacet
  facet normal -0 0 1
    outer loop
      vertex 162.646 72.6807 3.2
      vertex 163.19 71.9673 3.2
      vertex 163.109 72.8217 3.2
    endloop
  endfacet
  facet normal -0 0 1
    outer loop
      vertex 162.502 73.1662 3.2
      vertex 163.109 72.8217 3.2
      vertex 162.868 73.4375 3.2
    endloop
  endfacet
  facet normal 0 0 1
    outer loop
      vertex 162.643 71.2729 3.2
      vertex 163.19 71.9673 3.2
      vertex 162.693 71.9673 3.2
    endloop
  endfacet
  facet normal 0 0 1
    outer loop
      vertex 163.19 71.9673 3.2
      vertex 162.643 71.2729 3.2
      vertex 163.105 71.123 3.2
    endloop
  endfacet
  facet normal 0 0 1
    outer loop
      vertex 163.19 71.9673 3.2
      vertex 162.646 72.6807 3.2
      vertex 162.693 71.9673 3.2
    endloop
  endfacet
  facet normal 0 0 1
    outer loop
      vertex 163.109 72.8217 3.2
      vertex 162.502 73.1662 3.2
      vertex 162.646 72.6807 3.2
    endloop
  endfacet
  facet normal -0 0 1
    outer loop
      vertex 162.249 73.4449 3.2
      vertex 162.868 73.4375 3.2
      vertex 162.458 73.8098 3.2
    endloop
  endfacet
  facet normal 0 0 1
    outer loop
      vertex 162.868 73.4375 3.2
      vertex 162.249 73.4449 3.2
      vertex 162.502 73.1662 3.2
    endloop
  endfacet
  facet normal 0 0 1
    outer loop
      vertex 161.872 73.9339 3.2
      vertex 162.249 73.4449 3.2
      vertex 162.458 73.8098 3.2
    endloop
  endfacet
  facet normal 0 0 1
    outer loop
      vertex 161.872 73.9339 3.2
      vertex 161.872 73.5378 3.2
      vertex 162.249 73.4449 3.2
    endloop
  endfacet
  facet normal 0 0 1
    outer loop
      vertex 161.872 73.9339 3.2
      vertex 161.485 73.4463 3.2
      vertex 161.872 73.5378 3.2
    endloop
  endfacet
  facet normal -0 0 1
    outer loop
      vertex 161.27 73.8111 3.2
      vertex 161.485 73.4463 3.2
      vertex 161.872 73.9339 3.2
    endloop
  endfacet
  facet normal 0 0 1
    outer loop
      vertex 160.856 73.4429 3.2
      vertex 161.485 73.4463 3.2
      vertex 161.27 73.8111 3.2
    endloop
  endfacet
  facet normal 0 0 1
    outer loop
      vertex 161.485 73.4463 3.2
      vertex 160.856 73.4429 3.2
      vertex 161.225 73.1716 3.2
    endloop
  endfacet
  facet normal 0 0 1
    outer loop
      vertex 160.534 71.9673 3.2
      vertex 161.028 71.9673 3.2
      vertex 161.077 72.6875 3.2
    endloop
  endfacet
  facet normal 0 0 1
    outer loop
      vertex 160.615 72.8285 3.2
      vertex 161.225 73.1716 3.2
      vertex 160.856 73.4429 3.2
    endloop
  endfacet
  facet normal 0 0 1
    outer loop
      vertex 161.225 73.1716 3.2
      vertex 160.615 72.8285 3.2
      vertex 161.077 72.6875 3.2
    endloop
  endfacet
  facet normal 0 0 1
    outer loop
      vertex 161.028 71.9673 3.2
      vertex 160.534 71.9673 3.2
      vertex 160.617 71.1196 3.2
    endloop
  endfacet
  facet normal 0 0 1
    outer loop
      vertex 161.077 72.6875 3.2
      vertex 160.615 72.8285 3.2
      vertex 160.534 71.9673 3.2
    endloop
  endfacet
  facet normal 0 0 1
    outer loop
      vertex 161.028 71.9673 3.2
      vertex 160.617 71.1196 3.2
      vertex 160.865 70.5025 3.2
    endloop
  endfacet
  facet normal 0 0 1
    outer loop
      vertex 162.493 70.7846 3.2
      vertex 163.105 71.123 3.2
      vertex 162.643 71.2729 3.2
    endloop
  endfacet
  facet normal 0 0 1
    outer loop
      vertex 163.105 71.123 3.2
      vertex 162.493 70.7846 3.2
      vertex 162.852 70.5053 3.2
    endloop
  endfacet
  facet normal 0 0 1
    outer loop
      vertex 162.234 70.4958 3.2
      vertex 162.852 70.5053 3.2
      vertex 162.493 70.7846 3.2
    endloop
  endfacet
  facet normal 0 0 1
    outer loop
      vertex 162.852 70.5053 3.2
      vertex 162.234 70.4958 3.2
      vertex 162.434 70.1269 3.2
    endloop
  endfacet
  facet normal 0 0 1
    outer loop
      vertex 161.855 70.0007 3.2
      vertex 162.234 70.4958 3.2
      vertex 161.861 70.3995 3.2
    endloop
  endfacet
  facet normal 0 0 1
    outer loop
      vertex 162.234 70.4958 3.2
      vertex 161.855 70.0007 3.2
      vertex 162.434 70.1269 3.2
    endloop
  endfacet
  facet normal 0 0 1
    outer loop
      vertex 161.485 70.4937 3.2
      vertex 161.855 70.0007 3.2
      vertex 161.861 70.3995 3.2
    endloop
  endfacet
  facet normal 0 0 1
    outer loop
      vertex 161.485 70.4937 3.2
      vertex 161.278 70.1262 3.2
      vertex 161.855 70.0007 3.2
    endloop
  endfacet
  facet normal -0 0 1
    outer loop
      vertex 160.865 70.5025 3.2
      vertex 161.485 70.4937 3.2
      vertex 161.227 70.7765 3.2
    endloop
  endfacet
  facet normal 0 0 1
    outer loop
      vertex 160.865 70.5025 3.2
      vertex 161.227 70.7765 3.2
      vertex 161.078 71.2627 3.2
    endloop
  endfacet
  facet normal 0 0 1
    outer loop
      vertex 161.485 70.4937 3.2
      vertex 160.865 70.5025 3.2
      vertex 161.278 70.1262 3.2
    endloop
  endfacet
  facet normal 0 0 1
    outer loop
      vertex 160.865 70.5025 3.2
      vertex 161.078 71.2627 3.2
      vertex 161.028 71.9673 3.2
    endloop
  endfacet
  facet normal 0 0 1
    outer loop
      vertex 158.697 73.4104 3.2
      vertex 159.188 73.8769 3.2
      vertex 158.738 73.8769 3.2
    endloop
  endfacet
  facet normal -0 0 1
    outer loop
      vertex 159.188 70.47 3.2
      vertex 160.118 70.055 3.2
      vertex 160.118 70.47 3.2
    endloop
  endfacet
  facet normal 0 0 1
    outer loop
      vertex 159.188 73.8769 3.2
      vertex 158.697 73.4104 3.2
      vertex 159.188 70.47 3.2
    endloop
  endfacet
  facet normal 0 0 1
    outer loop
      vertex 158.697 70.47 3.2
      vertex 159.188 70.47 3.2
      vertex 158.697 73.4104 3.2
    endloop
  endfacet
  facet normal -0 0 1
    outer loop
      vertex 158.697 70.47 3.2
      vertex 160.118 70.055 3.2
      vertex 159.188 70.47 3.2
    endloop
  endfacet
  facet normal 0 0 1
    outer loop
      vertex 157.723 70.055 3.2
      vertex 158.697 70.47 3.2
      vertex 157.723 70.47 3.2
    endloop
  endfacet
  facet normal 0 0 1
    outer loop
      vertex 158.697 70.47 3.2
      vertex 157.723 70.055 3.2
      vertex 160.118 70.055 3.2
    endloop
  endfacet
  facet normal 0 0 1
    outer loop
      vertex 157.834 73.2558 3.2
      vertex 158.697 73.4104 3.2
      vertex 158.738 73.8769 3.2
    endloop
  endfacet
  facet normal 0 0 1
    outer loop
      vertex 158.697 73.4104 3.2
      vertex 157.834 73.2558 3.2
      vertex 157.834 72.7946 3.2
    endloop
  endfacet
  facet normal 0.671118 -0.741351 0
    outer loop
      vertex 162.434 70.1269 2.5
      vertex 162.852 70.5053 3.2
      vertex 162.434 70.1269 3.2
    endloop
  endfacet
  facet normal 0.671118 -0.741351 0
    outer loop
      vertex 162.852 70.5053 3.2
      vertex 162.434 70.1269 2.5
      vertex 162.852 70.5053 2.5
    endloop
  endfacet
  facet normal 0.925387 -0.379024 1.8753e-17
    outer loop
      vertex 162.852 70.5053 3.2
      vertex 163.105 71.123 2.5
      vertex 163.105 71.123 3.2
    endloop
  endfacet
  facet normal 0.925387 -0.379024 1.8753e-17
    outer loop
      vertex 163.105 71.123 2.5
      vertex 162.852 70.5053 3.2
      vertex 162.852 70.5053 2.5
    endloop
  endfacet
  facet normal 0.99497 -0.100169 4.56502e-18
    outer loop
      vertex 163.105 71.123 3.2
      vertex 163.19 71.9673 2.5
      vertex 163.19 71.9673 3.2
    endloop
  endfacet
  facet normal 0.99497 -0.100169 4.56502e-18
    outer loop
      vertex 163.19 71.9673 2.5
      vertex 163.105 71.123 3.2
      vertex 163.105 71.123 2.5
    endloop
  endfacet
  facet normal 0.995536 0.0943802 3.64963e-18
    outer loop
      vertex 163.19 71.9673 3.2
      vertex 163.109 72.8217 2.5
      vertex 163.109 72.8217 3.2
    endloop
  endfacet
  facet normal 0.995536 0.0943802 3.64963e-18
    outer loop
      vertex 163.109 72.8217 2.5
      vertex 163.19 71.9673 3.2
      vertex 163.19 71.9673 2.5
    endloop
  endfacet
  facet normal 0.931225 0.364445 7.03642e-18
    outer loop
      vertex 163.109 72.8217 3.2
      vertex 162.868 73.4375 2.5
      vertex 162.868 73.4375 3.2
    endloop
  endfacet
  facet normal 0.931225 0.364445 7.03642e-18
    outer loop
      vertex 162.868 73.4375 2.5
      vertex 163.109 72.8217 3.2
      vertex 163.109 72.8217 2.5
    endloop
  endfacet
  facet normal 0.67225 0.740324 -0
    outer loop
      vertex 162.868 73.4375 2.5
      vertex 162.458 73.8098 3.2
      vertex 162.868 73.4375 3.2
    endloop
  endfacet
  facet normal 0.67225 0.740324 0
    outer loop
      vertex 162.458 73.8098 3.2
      vertex 162.868 73.4375 2.5
      vertex 162.458 73.8098 2.5
    endloop
  endfacet
  facet normal 0.20718 0.978303 -0
    outer loop
      vertex 162.458 73.8098 2.5
      vertex 161.872 73.9339 3.2
      vertex 162.458 73.8098 3.2
    endloop
  endfacet
  facet normal 0.20718 0.978303 0
    outer loop
      vertex 161.872 73.9339 3.2
      vertex 162.458 73.8098 2.5
      vertex 161.872 73.9339 2.5
    endloop
  endfacet
  facet normal -0.199871 0.979822 0
    outer loop
      vertex 161.872 73.9339 2.5
      vertex 161.27 73.8111 3.2
      vertex 161.872 73.9339 3.2
    endloop
  endfacet
  facet normal -0.199871 0.979822 0
    outer loop
      vertex 161.27 73.8111 3.2
      vertex 161.872 73.9339 2.5
      vertex 161.27 73.8111 2.5
    endloop
  endfacet
  facet normal -0.664565 0.74723 0
    outer loop
      vertex 161.27 73.8111 2.5
      vertex 160.856 73.4429 3.2
      vertex 161.27 73.8111 3.2
    endloop
  endfacet
  facet normal -0.664565 0.74723 0
    outer loop
      vertex 160.856 73.4429 3.2
      vertex 161.27 73.8111 2.5
      vertex 160.856 73.4429 2.5
    endloop
  endfacet
  facet normal -0.930943 0.365165 1.37853e-17
    outer loop
      vertex 160.615 72.8285 2.5
      vertex 160.856 73.4429 3.2
      vertex 160.856 73.4429 2.5
    endloop
  endfacet
  facet normal -0.930943 0.365165 1.37853e-17
    outer loop
      vertex 160.856 73.4429 3.2
      vertex 160.615 72.8285 2.5
      vertex 160.615 72.8285 3.2
    endloop
  endfacet
  facet normal -0.995606 0.0936415 6.24467e-18
    outer loop
      vertex 160.534 71.9673 2.5
      vertex 160.615 72.8285 3.2
      vertex 160.615 72.8285 2.5
    endloop
  endfacet
  facet normal -0.995606 0.0936415 6.24467e-18
    outer loop
      vertex 160.615 72.8285 3.2
      vertex 160.534 71.9673 2.5
      vertex 160.534 71.9673 3.2
    endloop
  endfacet
  facet normal -0.995241 -0.097446 1.07306e-17
    outer loop
      vertex 160.617 71.1196 2.5
      vertex 160.534 71.9673 3.2
      vertex 160.534 71.9673 2.5
    endloop
  endfacet
  facet normal -0.995241 -0.097446 1.07306e-17
    outer loop
      vertex 160.534 71.9673 3.2
      vertex 160.617 71.1196 2.5
      vertex 160.617 71.1196 3.2
    endloop
  endfacet
  facet normal -0.927874 -0.372894 1.78556e-17
    outer loop
      vertex 160.865 70.5025 2.5
      vertex 160.617 71.1196 3.2
      vertex 160.617 71.1196 2.5
    endloop
  endfacet
  facet normal -0.927874 -0.372894 1.78556e-17
    outer loop
      vertex 160.617 71.1196 3.2
      vertex 160.865 70.5025 2.5
      vertex 160.865 70.5025 3.2
    endloop
  endfacet
  facet normal -0.673501 -0.739186 0
    outer loop
      vertex 160.865 70.5025 2.5
      vertex 161.278 70.1262 3.2
      vertex 160.865 70.5025 3.2
    endloop
  endfacet
  facet normal -0.673501 -0.739186 -0
    outer loop
      vertex 161.278 70.1262 3.2
      vertex 160.865 70.5025 2.5
      vertex 161.278 70.1262 2.5
    endloop
  endfacet
  facet normal -0.212535 -0.977153 0
    outer loop
      vertex 161.278 70.1262 2.5
      vertex 161.855 70.0007 3.2
      vertex 161.278 70.1262 3.2
    endloop
  endfacet
  facet normal -0.212535 -0.977153 -0
    outer loop
      vertex 161.855 70.0007 3.2
      vertex 161.278 70.1262 2.5
      vertex 161.855 70.0007 2.5
    endloop
  endfacet
  facet normal 0.212962 -0.97706 0
    outer loop
      vertex 161.855 70.0007 2.5
      vertex 162.434 70.1269 3.2
      vertex 161.855 70.0007 3.2
    endloop
  endfacet
  facet normal 0.212962 -0.97706 0
    outer loop
      vertex 162.434 70.1269 3.2
      vertex 161.855 70.0007 2.5
      vertex 162.434 70.1269 2.5
    endloop
  endfacet
  facet normal 0.738757 0.673972 -1.51223e-17
    outer loop
      vertex 161.485 70.4937 3.2
      vertex 161.227 70.7765 2.5
      vertex 161.227 70.7765 3.2
    endloop
  endfacet
  facet normal 0.738757 0.673972 -1.51223e-17
    outer loop
      vertex 161.227 70.7765 2.5
      vertex 161.485 70.4937 3.2
      vertex 161.485 70.4937 2.5
    endloop
  endfacet
  facet normal 0.95611 0.293008 1.77933e-17
    outer loop
      vertex 161.227 70.7765 3.2
      vertex 161.078 71.2627 2.5
      vertex 161.078 71.2627 3.2
    endloop
  endfacet
  facet normal 0.95611 0.293008 1.77933e-17
    outer loop
      vertex 161.078 71.2627 2.5
      vertex 161.227 70.7765 3.2
      vertex 161.227 70.7765 2.5
    endloop
  endfacet
  facet normal 0.997492 0.0707842 -3.04017e-18
    outer loop
      vertex 161.078 71.2627 3.2
      vertex 161.028 71.9673 2.5
      vertex 161.028 71.9673 3.2
    endloop
  endfacet
  facet normal 0.997492 0.0707842 -3.04017e-18
    outer loop
      vertex 161.028 71.9673 2.5
      vertex 161.078 71.2627 3.2
      vertex 161.078 71.2627 2.5
    endloop
  endfacet
  facet normal 0.997694 -0.0678797 -2.83026e-18
    outer loop
      vertex 161.028 71.9673 3.2
      vertex 161.077 72.6875 2.5
      vertex 161.077 72.6875 3.2
    endloop
  endfacet
  facet normal 0.997694 -0.0678797 -2.83026e-18
    outer loop
      vertex 161.077 72.6875 2.5
      vertex 161.028 71.9673 3.2
      vertex 161.028 71.9673 2.5
    endloop
  endfacet
  facet normal 0.956307 -0.292364 -6.71286e-18
    outer loop
      vertex 161.077 72.6875 3.2
      vertex 161.225 73.1716 2.5
      vertex 161.225 73.1716 3.2
    endloop
  endfacet
  facet normal 0.956307 -0.292364 -6.71286e-18
    outer loop
      vertex 161.225 73.1716 2.5
      vertex 161.077 72.6875 3.2
      vertex 161.077 72.6875 2.5
    endloop
  endfacet
  facet normal 0.726272 -0.687407 -2.52536e-17
    outer loop
      vertex 161.225 73.1716 3.2
      vertex 161.485 73.4463 2.5
      vertex 161.485 73.4463 3.2
    endloop
  endfacet
  facet normal 0.726272 -0.687407 -2.52536e-17
    outer loop
      vertex 161.485 73.4463 2.5
      vertex 161.225 73.1716 3.2
      vertex 161.225 73.1716 2.5
    endloop
  endfacet
  facet normal 0.23009 -0.973169 0
    outer loop
      vertex 161.485 73.4463 2.5
      vertex 161.872 73.5378 3.2
      vertex 161.485 73.4463 3.2
    endloop
  endfacet
  facet normal 0.23009 -0.973169 0
    outer loop
      vertex 161.872 73.5378 3.2
      vertex 161.485 73.4463 2.5
      vertex 161.872 73.5378 2.5
    endloop
  endfacet
  facet normal -0.239262 -0.970955 0
    outer loop
      vertex 161.872 73.5378 2.5
      vertex 162.249 73.4449 3.2
      vertex 161.872 73.5378 3.2
    endloop
  endfacet
  facet normal -0.239262 -0.970955 -0
    outer loop
      vertex 162.249 73.4449 3.2
      vertex 161.872 73.5378 2.5
      vertex 162.249 73.4449 2.5
    endloop
  endfacet
  facet normal -0.740421 -0.672144 -1.85351e-17
    outer loop
      vertex 162.502 73.1662 2.5
      vertex 162.249 73.4449 3.2
      vertex 162.249 73.4449 2.5
    endloop
  endfacet
  facet normal -0.740421 -0.672144 -1.85351e-17
    outer loop
      vertex 162.249 73.4449 3.2
      vertex 162.502 73.1662 2.5
      vertex 162.502 73.1662 3.2
    endloop
  endfacet
  facet normal -0.958718 -0.284357 -1.32469e-17
    outer loop
      vertex 162.646 72.6807 2.5
      vertex 162.502 73.1662 3.2
      vertex 162.502 73.1662 2.5
    endloop
  endfacet
  facet normal -0.958718 -0.284357 -1.32469e-17
    outer loop
      vertex 162.502 73.1662 3.2
      vertex 162.646 72.6807 2.5
      vertex 162.646 72.6807 3.2
    endloop
  endfacet
  facet normal -0.997837 -0.0657392 3.25252e-18
    outer loop
      vertex 162.693 71.9673 2.5
      vertex 162.646 72.6807 3.2
      vertex 162.646 72.6807 2.5
    endloop
  endfacet
  facet normal -0.997837 -0.0657392 3.25252e-18
    outer loop
      vertex 162.646 72.6807 3.2
      vertex 162.693 71.9673 2.5
      vertex 162.693 71.9673 3.2
    endloop
  endfacet
  facet normal -0.997418 0.0718187 4.34213e-18
    outer loop
      vertex 162.643 71.2729 2.5
      vertex 162.693 71.9673 3.2
      vertex 162.693 71.9673 2.5
    endloop
  endfacet
  facet normal -0.997418 0.0718187 4.34213e-18
    outer loop
      vertex 162.693 71.9673 3.2
      vertex 162.643 71.2729 2.5
      vertex 162.643 71.2729 3.2
    endloop
  endfacet
  facet normal -0.955914 0.293646 1.58225e-17
    outer loop
      vertex 162.493 70.7846 2.5
      vertex 162.643 71.2729 3.2
      vertex 162.643 71.2729 2.5
    endloop
  endfacet
  facet normal -0.955914 0.293646 1.58225e-17
    outer loop
      vertex 162.643 71.2729 3.2
      vertex 162.493 70.7846 2.5
      vertex 162.493 70.7846 3.2
    endloop
  endfacet
  facet normal -0.744472 0.667653 1.58607e-17
    outer loop
      vertex 162.234 70.4958 2.5
      vertex 162.493 70.7846 3.2
      vertex 162.493 70.7846 2.5
    endloop
  endfacet
  facet normal -0.744472 0.667653 1.58607e-17
    outer loop
      vertex 162.493 70.7846 3.2
      vertex 162.234 70.4958 2.5
      vertex 162.234 70.4958 3.2
    endloop
  endfacet
  facet normal -0.24998 0.968251 0
    outer loop
      vertex 162.234 70.4958 2.5
      vertex 161.861 70.3995 3.2
      vertex 162.234 70.4958 3.2
    endloop
  endfacet
  facet normal -0.24998 0.968251 0
    outer loop
      vertex 161.861 70.3995 3.2
      vertex 162.234 70.4958 2.5
      vertex 161.861 70.3995 2.5
    endloop
  endfacet
  facet normal 0.243021 0.970021 -0
    outer loop
      vertex 161.861 70.3995 2.5
      vertex 161.485 70.4937 3.2
      vertex 161.861 70.3995 3.2
    endloop
  endfacet
  facet normal 0.243021 0.970021 0
    outer loop
      vertex 161.485 70.4937 3.2
      vertex 161.861 70.3995 2.5
      vertex 161.485 70.4937 2.5
    endloop
  endfacet
  facet normal 0 1 -0
    outer loop
      vertex 160.118 70.47 2.5
      vertex 159.188 70.47 3.2
      vertex 160.118 70.47 3.2
    endloop
  endfacet
  facet normal 0 1 0
    outer loop
      vertex 159.188 70.47 3.2
      vertex 160.118 70.47 2.5
      vertex 159.188 70.47 2.5
    endloop
  endfacet
  facet normal 1 -0 0
    outer loop
      vertex 159.188 70.47 3.2
      vertex 159.188 73.8769 2.5
      vertex 159.188 73.8769 3.2
    endloop
  endfacet
  facet normal 1 0 0
    outer loop
      vertex 159.188 73.8769 2.5
      vertex 159.188 70.47 3.2
      vertex 159.188 70.47 2.5
    endloop
  endfacet
  facet normal 0 1 -0
    outer loop
      vertex 159.188 73.8769 2.5
      vertex 158.738 73.8769 3.2
      vertex 159.188 73.8769 3.2
    endloop
  endfacet
  facet normal 0 1 0
    outer loop
      vertex 158.738 73.8769 3.2
      vertex 159.188 73.8769 2.5
      vertex 158.738 73.8769 2.5
    endloop
  endfacet
  facet normal -0.566281 0.824212 0
    outer loop
      vertex 158.738 73.8769 2.5
      vertex 157.834 73.2558 3.2
      vertex 158.738 73.8769 3.2
    endloop
  endfacet
  facet normal -0.566281 0.824212 0
    outer loop
      vertex 157.834 73.2558 3.2
      vertex 158.738 73.8769 2.5
      vertex 157.834 73.2558 2.5
    endloop
  endfacet
  facet normal -1 0 0
    outer loop
      vertex 157.834 72.7946 2.5
      vertex 157.834 73.2558 3.2
      vertex 157.834 73.2558 2.5
    endloop
  endfacet
  facet normal -1 -0 0
    outer loop
      vertex 157.834 73.2558 3.2
      vertex 157.834 72.7946 2.5
      vertex 157.834 72.7946 3.2
    endloop
  endfacet
  facet normal 0.580846 -0.814014 0
    outer loop
      vertex 157.834 72.7946 2.5
      vertex 158.697 73.4104 3.2
      vertex 157.834 72.7946 3.2
    endloop
  endfacet
  facet normal 0.580846 -0.814014 0
    outer loop
      vertex 158.697 73.4104 3.2
      vertex 157.834 72.7946 2.5
      vertex 158.697 73.4104 2.5
    endloop
  endfacet
  facet normal -1 0 0
    outer loop
      vertex 158.697 70.47 2.5
      vertex 158.697 73.4104 3.2
      vertex 158.697 73.4104 2.5
    endloop
  endfacet
  facet normal -1 -0 0
    outer loop
      vertex 158.697 73.4104 3.2
      vertex 158.697 70.47 2.5
      vertex 158.697 70.47 3.2
    endloop
  endfacet
  facet normal 0 1 -0
    outer loop
      vertex 158.697 70.47 2.5
      vertex 157.723 70.47 3.2
      vertex 158.697 70.47 3.2
    endloop
  endfacet
  facet normal 0 1 0
    outer loop
      vertex 157.723 70.47 3.2
      vertex 158.697 70.47 2.5
      vertex 157.723 70.47 2.5
    endloop
  endfacet
  facet normal -1 0 0
    outer loop
      vertex 157.723 70.055 2.5
      vertex 157.723 70.47 3.2
      vertex 157.723 70.47 2.5
    endloop
  endfacet
  facet normal -1 -0 0
    outer loop
      vertex 157.723 70.47 3.2
      vertex 157.723 70.055 2.5
      vertex 157.723 70.055 3.2
    endloop
  endfacet
  facet normal 0 -1 0
    outer loop
      vertex 157.723 70.055 2.5
      vertex 160.118 70.055 3.2
      vertex 157.723 70.055 3.2
    endloop
  endfacet
  facet normal 0 -1 -0
    outer loop
      vertex 160.118 70.055 3.2
      vertex 157.723 70.055 2.5
      vertex 160.118 70.055 2.5
    endloop
  endfacet
  facet normal 1 -0 0
    outer loop
      vertex 160.118 70.055 3.2
      vertex 160.118 70.47 2.5
      vertex 160.118 70.47 3.2
    endloop
  endfacet
  facet normal 1 0 0
    outer loop
      vertex 160.118 70.47 2.5
      vertex 160.118 70.055 3.2
      vertex 160.118 70.055 2.5
    endloop
  endfacet
  facet normal 0 0 -1
    outer loop
      vertex 150.118 60 2.5
      vertex 149.188 60.415 2.5
      vertex 150.118 60.415 2.5
    endloop
  endfacet
  facet normal 0 0 -1
    outer loop
      vertex 148.697 63.3553 2.5
      vertex 149.188 63.8219 2.5
      vertex 149.188 60.415 2.5
    endloop
  endfacet
  facet normal 0 0 -1
    outer loop
      vertex 148.697 63.3553 2.5
      vertex 149.188 60.415 2.5
      vertex 148.697 60.415 2.5
    endloop
  endfacet
  facet normal 0 0 -1
    outer loop
      vertex 150.118 60 2.5
      vertex 148.697 60.415 2.5
      vertex 149.188 60.415 2.5
    endloop
  endfacet
  facet normal 0 0 -1
    outer loop
      vertex 147.723 60 2.5
      vertex 148.697 60.415 2.5
      vertex 150.118 60 2.5
    endloop
  endfacet
  facet normal -0 0 -1
    outer loop
      vertex 148.697 60.415 2.5
      vertex 147.723 60 2.5
      vertex 147.723 60.415 2.5
    endloop
  endfacet
  facet normal -0 0 -1
    outer loop
      vertex 149.188 63.8219 2.5
      vertex 148.697 63.3553 2.5
      vertex 148.738 63.8219 2.5
    endloop
  endfacet
  facet normal 0 0 -1
    outer loop
      vertex 147.834 63.2008 2.5
      vertex 148.697 63.3553 2.5
      vertex 147.834 62.7396 2.5
    endloop
  endfacet
  facet normal -0 0 -1
    outer loop
      vertex 148.697 63.3553 2.5
      vertex 147.834 63.2008 2.5
      vertex 148.738 63.8219 2.5
    endloop
  endfacet
  facet normal 0 0 -1
    outer loop
      vertex 152.733 60 2.5
      vertex 151.803 60.415 2.5
      vertex 152.733 60.415 2.5
    endloop
  endfacet
  facet normal 0 0 -1
    outer loop
      vertex 151.312 63.3553 2.5
      vertex 151.803 63.8219 2.5
      vertex 151.803 60.415 2.5
    endloop
  endfacet
  facet normal 0 0 -1
    outer loop
      vertex 151.312 63.3553 2.5
      vertex 151.803 60.415 2.5
      vertex 151.312 60.415 2.5
    endloop
  endfacet
  facet normal 0 0 -1
    outer loop
      vertex 152.733 60 2.5
      vertex 151.312 60.415 2.5
      vertex 151.803 60.415 2.5
    endloop
  endfacet
  facet normal 0 0 -1
    outer loop
      vertex 150.338 60 2.5
      vertex 151.312 60.415 2.5
      vertex 152.733 60 2.5
    endloop
  endfacet
  facet normal -0 0 -1
    outer loop
      vertex 151.312 60.415 2.5
      vertex 150.338 60 2.5
      vertex 150.338 60.415 2.5
    endloop
  endfacet
  facet normal -0 0 -1
    outer loop
      vertex 151.803 63.8219 2.5
      vertex 151.312 63.3553 2.5
      vertex 151.352 63.8219 2.5
    endloop
  endfacet
  facet normal 0 0 -1
    outer loop
      vertex 150.449 63.2008 2.5
      vertex 151.312 63.3553 2.5
      vertex 150.449 62.7396 2.5
    endloop
  endfacet
  facet normal -0 0 -1
    outer loop
      vertex 151.312 63.3553 2.5
      vertex 150.449 63.2008 2.5
      vertex 151.352 63.8219 2.5
    endloop
  endfacet
  facet normal 0 0 1
    outer loop
      vertex 148.697 63.3553 3.2
      vertex 149.188 63.8219 3.2
      vertex 148.738 63.8219 3.2
    endloop
  endfacet
  facet normal -0 0 1
    outer loop
      vertex 149.188 60.415 3.2
      vertex 150.118 60 3.2
      vertex 150.118 60.415 3.2
    endloop
  endfacet
  facet normal 0 0 1
    outer loop
      vertex 149.188 63.8219 3.2
      vertex 148.697 63.3553 3.2
      vertex 149.188 60.415 3.2
    endloop
  endfacet
  facet normal 0 0 1
    outer loop
      vertex 148.697 60.415 3.2
      vertex 149.188 60.415 3.2
      vertex 148.697 63.3553 3.2
    endloop
  endfacet
  facet normal -0 0 1
    outer loop
      vertex 148.697 60.415 3.2
      vertex 150.118 60 3.2
      vertex 149.188 60.415 3.2
    endloop
  endfacet
  facet normal 0 0 1
    outer loop
      vertex 147.723 60 3.2
      vertex 148.697 60.415 3.2
      vertex 147.723 60.415 3.2
    endloop
  endfacet
  facet normal 0 0 1
    outer loop
      vertex 148.697 60.415 3.2
      vertex 147.723 60 3.2
      vertex 150.118 60 3.2
    endloop
  endfacet
  facet normal 0 0 1
    outer loop
      vertex 147.834 63.2008 3.2
      vertex 148.697 63.3553 3.2
      vertex 148.738 63.8219 3.2
    endloop
  endfacet
  facet normal 0 0 1
    outer loop
      vertex 148.697 63.3553 3.2
      vertex 147.834 63.2008 3.2
      vertex 147.834 62.7396 3.2
    endloop
  endfacet
  facet normal 0 0 1
    outer loop
      vertex 151.312 63.3553 3.2
      vertex 151.803 63.8219 3.2
      vertex 151.352 63.8219 3.2
    endloop
  endfacet
  facet normal -0 0 1
    outer loop
      vertex 151.803 60.415 3.2
      vertex 152.733 60 3.2
      vertex 152.733 60.415 3.2
    endloop
  endfacet
  facet normal 0 0 1
    outer loop
      vertex 151.803 63.8219 3.2
      vertex 151.312 63.3553 3.2
      vertex 151.803 60.415 3.2
    endloop
  endfacet
  facet normal 0 0 1
    outer loop
      vertex 151.312 60.415 3.2
      vertex 151.803 60.415 3.2
      vertex 151.312 63.3553 3.2
    endloop
  endfacet
  facet normal -0 0 1
    outer loop
      vertex 151.312 60.415 3.2
      vertex 152.733 60 3.2
      vertex 151.803 60.415 3.2
    endloop
  endfacet
  facet normal 0 0 1
    outer loop
      vertex 150.338 60 3.2
      vertex 151.312 60.415 3.2
      vertex 150.338 60.415 3.2
    endloop
  endfacet
  facet normal 0 0 1
    outer loop
      vertex 151.312 60.415 3.2
      vertex 150.338 60 3.2
      vertex 152.733 60 3.2
    endloop
  endfacet
  facet normal 0 0 1
    outer loop
      vertex 150.449 63.2008 3.2
      vertex 151.312 63.3553 3.2
      vertex 151.352 63.8219 3.2
    endloop
  endfacet
  facet normal 0 0 1
    outer loop
      vertex 151.312 63.3553 3.2
      vertex 150.449 63.2008 3.2
      vertex 150.449 62.7396 3.2
    endloop
  endfacet
  facet normal 0 1 -0
    outer loop
      vertex 150.118 60.415 2.5
      vertex 149.188 60.415 3.2
      vertex 150.118 60.415 3.2
    endloop
  endfacet
  facet normal 0 1 0
    outer loop
      vertex 149.188 60.415 3.2
      vertex 150.118 60.415 2.5
      vertex 149.188 60.415 2.5
    endloop
  endfacet
  facet normal 1 -0 0
    outer loop
      vertex 149.188 60.415 3.2
      vertex 149.188 63.8219 2.5
      vertex 149.188 63.8219 3.2
    endloop
  endfacet
  facet normal 1 0 0
    outer loop
      vertex 149.188 63.8219 2.5
      vertex 149.188 60.415 3.2
      vertex 149.188 60.415 2.5
    endloop
  endfacet
  facet normal 0 1 -0
    outer loop
      vertex 149.188 63.8219 2.5
      vertex 148.738 63.8219 3.2
      vertex 149.188 63.8219 3.2
    endloop
  endfacet
  facet normal 0 1 0
    outer loop
      vertex 148.738 63.8219 3.2
      vertex 149.188 63.8219 2.5
      vertex 148.738 63.8219 2.5
    endloop
  endfacet
  facet normal -0.566281 0.824212 0
    outer loop
      vertex 148.738 63.8219 2.5
      vertex 147.834 63.2008 3.2
      vertex 148.738 63.8219 3.2
    endloop
  endfacet
  facet normal -0.566281 0.824212 0
    outer loop
      vertex 147.834 63.2008 3.2
      vertex 148.738 63.8219 2.5
      vertex 147.834 63.2008 2.5
    endloop
  endfacet
  facet normal -1 0 0
    outer loop
      vertex 147.834 62.7396 2.5
      vertex 147.834 63.2008 3.2
      vertex 147.834 63.2008 2.5
    endloop
  endfacet
  facet normal -1 -0 0
    outer loop
      vertex 147.834 63.2008 3.2
      vertex 147.834 62.7396 2.5
      vertex 147.834 62.7396 3.2
    endloop
  endfacet
  facet normal 0.580783 -0.814058 0
    outer loop
      vertex 147.834 62.7396 2.5
      vertex 148.697 63.3553 3.2
      vertex 147.834 62.7396 3.2
    endloop
  endfacet
  facet normal 0.580783 -0.814058 0
    outer loop
      vertex 148.697 63.3553 3.2
      vertex 147.834 62.7396 2.5
      vertex 148.697 63.3553 2.5
    endloop
  endfacet
  facet normal -1 0 0
    outer loop
      vertex 148.697 60.415 2.5
      vertex 148.697 63.3553 3.2
      vertex 148.697 63.3553 2.5
    endloop
  endfacet
  facet normal -1 -0 0
    outer loop
      vertex 148.697 63.3553 3.2
      vertex 148.697 60.415 2.5
      vertex 148.697 60.415 3.2
    endloop
  endfacet
  facet normal 0 1 -0
    outer loop
      vertex 148.697 60.415 2.5
      vertex 147.723 60.415 3.2
      vertex 148.697 60.415 3.2
    endloop
  endfacet
  facet normal 0 1 0
    outer loop
      vertex 147.723 60.415 3.2
      vertex 148.697 60.415 2.5
      vertex 147.723 60.415 2.5
    endloop
  endfacet
  facet normal -1 0 0
    outer loop
      vertex 147.723 60 2.5
      vertex 147.723 60.415 3.2
      vertex 147.723 60.415 2.5
    endloop
  endfacet
  facet normal -1 -0 0
    outer loop
      vertex 147.723 60.415 3.2
      vertex 147.723 60 2.5
      vertex 147.723 60 3.2
    endloop
  endfacet
  facet normal 0 -1 0
    outer loop
      vertex 147.723 60 2.5
      vertex 150.118 60 3.2
      vertex 147.723 60 3.2
    endloop
  endfacet
  facet normal 0 -1 -0
    outer loop
      vertex 150.118 60 3.2
      vertex 147.723 60 2.5
      vertex 150.118 60 2.5
    endloop
  endfacet
  facet normal 1 -0 0
    outer loop
      vertex 150.118 60 3.2
      vertex 150.118 60.415 2.5
      vertex 150.118 60.415 3.2
    endloop
  endfacet
  facet normal 1 0 0
    outer loop
      vertex 150.118 60.415 2.5
      vertex 150.118 60 3.2
      vertex 150.118 60 2.5
    endloop
  endfacet
  facet normal 0 1 -0
    outer loop
      vertex 152.733 60.415 2.5
      vertex 151.803 60.415 3.2
      vertex 152.733 60.415 3.2
    endloop
  endfacet
  facet normal 0 1 0
    outer loop
      vertex 151.803 60.415 3.2
      vertex 152.733 60.415 2.5
      vertex 151.803 60.415 2.5
    endloop
  endfacet
  facet normal 1 -0 0
    outer loop
      vertex 151.803 60.415 3.2
      vertex 151.803 63.8219 2.5
      vertex 151.803 63.8219 3.2
    endloop
  endfacet
  facet normal 1 0 0
    outer loop
      vertex 151.803 63.8219 2.5
      vertex 151.803 60.415 3.2
      vertex 151.803 60.415 2.5
    endloop
  endfacet
  facet normal 0 1 -0
    outer loop
      vertex 151.803 63.8219 2.5
      vertex 151.352 63.8219 3.2
      vertex 151.803 63.8219 3.2
    endloop
  endfacet
  facet normal 0 1 0
    outer loop
      vertex 151.352 63.8219 3.2
      vertex 151.803 63.8219 2.5
      vertex 151.352 63.8219 2.5
    endloop
  endfacet
  facet normal -0.566707 0.823919 0
    outer loop
      vertex 151.352 63.8219 2.5
      vertex 150.449 63.2008 3.2
      vertex 151.352 63.8219 3.2
    endloop
  endfacet
  facet normal -0.566707 0.823919 0
    outer loop
      vertex 150.449 63.2008 3.2
      vertex 151.352 63.8219 2.5
      vertex 150.449 63.2008 2.5
    endloop
  endfacet
  facet normal -1 0 0
    outer loop
      vertex 150.449 62.7396 2.5
      vertex 150.449 63.2008 3.2
      vertex 150.449 63.2008 2.5
    endloop
  endfacet
  facet normal -1 -0 0
    outer loop
      vertex 150.449 63.2008 3.2
      vertex 150.449 62.7396 2.5
      vertex 150.449 62.7396 3.2
    endloop
  endfacet
  facet normal 0.580783 -0.814058 0
    outer loop
      vertex 150.449 62.7396 2.5
      vertex 151.312 63.3553 3.2
      vertex 150.449 62.7396 3.2
    endloop
  endfacet
  facet normal 0.580783 -0.814058 0
    outer loop
      vertex 151.312 63.3553 3.2
      vertex 150.449 62.7396 2.5
      vertex 151.312 63.3553 2.5
    endloop
  endfacet
  facet normal -1 0 0
    outer loop
      vertex 151.312 60.415 2.5
      vertex 151.312 63.3553 3.2
      vertex 151.312 63.3553 2.5
    endloop
  endfacet
  facet normal -1 -0 0
    outer loop
      vertex 151.312 63.3553 3.2
      vertex 151.312 60.415 2.5
      vertex 151.312 60.415 3.2
    endloop
  endfacet
  facet normal 0 1 -0
    outer loop
      vertex 151.312 60.415 2.5
      vertex 150.338 60.415 3.2
      vertex 151.312 60.415 3.2
    endloop
  endfacet
  facet normal 0 1 0
    outer loop
      vertex 150.338 60.415 3.2
      vertex 151.312 60.415 2.5
      vertex 150.338 60.415 2.5
    endloop
  endfacet
  facet normal -1 0 0
    outer loop
      vertex 150.338 60 2.5
      vertex 150.338 60.415 3.2
      vertex 150.338 60.415 2.5
    endloop
  endfacet
  facet normal -1 -0 0
    outer loop
      vertex 150.338 60.415 3.2
      vertex 150.338 60 2.5
      vertex 150.338 60 3.2
    endloop
  endfacet
  facet normal 0 -1 0
    outer loop
      vertex 150.338 60 2.5
      vertex 152.733 60 3.2
      vertex 150.338 60 3.2
    endloop
  endfacet
  facet normal 0 -1 -0
    outer loop
      vertex 152.733 60 3.2
      vertex 150.338 60 2.5
      vertex 152.733 60 2.5
    endloop
  endfacet
  facet normal 1 -0 0
    outer loop
      vertex 152.733 60 3.2
      vertex 152.733 60.415 2.5
      vertex 152.733 60.415 3.2
    endloop
  endfacet
  facet normal 1 0 0
    outer loop
      vertex 152.733 60.415 2.5
      vertex 152.733 60 3.2
      vertex 152.733 60 2.5
    endloop
  endfacet
endsolid OpenSCAD_Model
